<?xml version="1.0" standalone="no"?><!DOCTYPE svg PUBLIC "-//W3C//DTD SVG 1.1//EN" "http://www.w3.org/Graphics/SVG/1.1/DTD/svg11.dtd"><svg t="1613800320826" class="icon" viewBox="0 0 1024 1024" version="1.1" xmlns="http://www.w3.org/2000/svg" p-id="5022" xmlns:xlink="http://www.w3.org/1999/xlink" width="200" height="200"><defs><style type="text/css"></style></defs><path d="M512 68.266667c244.053333 0 443.733333 199.68 443.733333 443.733333s-199.68 443.733333-443.733333 443.733333S68.266667 756.053333 68.266667 512 267.946667 68.266667 512 68.266667z m0-68.266667C230.4 0 0 230.4 0 512s230.4 512 512 512 512-230.4 512-512S793.6 0 512 0z" fill="#000000" p-id="5023"></path><path d="M740.625067 413.184l-261.290667 256a44.9536 44.9536 0 0 1-64.170667 0l-128.341333-125.7472c-18.3296-17.954133-18.3296-44.919467 0-62.8736a44.9536 44.9536 0 0 1 64.170667 0l96.256 94.3104 229.205333-220.0576a44.9536 44.9536 0 0 1 64.170667 0c13.755733 13.448533 13.755733 40.413867 0 58.368z" fill="#000000" p-id="5024"></path></svg>