<?xml version="1.0" standalone="no"?><!DOCTYPE svg PUBLIC "-//W3C//DTD SVG 1.1//EN" "http://www.w3.org/Graphics/SVG/1.1/DTD/svg11.dtd"><svg t="1622184658013" class="icon" viewBox="0 0 1024 1024" version="1.1" xmlns="http://www.w3.org/2000/svg" p-id="5080" xmlns:xlink="http://www.w3.org/1999/xlink" width="200" height="200"><defs><style type="text/css"></style></defs><path d="M520.154074 477.677037a18.962963 18.962963 0 0 1-5.499259 0L15.17037 320.284444A18.962963 18.962963 0 0 1 13.653333 284.444444L513.137778 81.351111a18.962963 18.962963 0 0 1 14.032592 0l324.266667 134.637037a18.962963 18.962963 0 0 1 10.24 24.651852 18.962963 18.962963 0 0 1-24.462222 10.42963L519.964444 119.466667 75.851852 299.804444l443.543704 138.998519L999.537778 284.444444a18.962963 18.962963 0 0 1 23.514074 12.325926 18.962963 18.962963 0 0 1-12.136296 23.893334l-485.072593 156.254815a18.962963 18.962963 0 0 1-5.688889 0.758518z" fill="#075FA9" p-id="5081"></path><path d="M539.875556 979.247407a18.962963 18.962963 0 0 1-8.912593-2.275555L153.031111 771.223704a18.962963 18.962963 0 0 1-9.860741-16.687408V420.02963a18.962963 18.962963 0 0 1 8.533334-15.36 18.962963 18.962963 0 0 1 16.687407-2.654815l350.625185 113.777778 355.176297-113.777778a18.962963 18.962963 0 0 1 16.687407 2.844444 18.962963 18.962963 0 0 1 7.585185 15.36v334.317037a18.962963 18.962963 0 0 1-9.102222 16.308148L549.925926 976.592593a18.962963 18.962963 0 0 1-10.05037 2.654814zM180.717037 743.158519l358.779259 195.318518 320.853334-194.74963V445.819259L523.757037 553.718519a18.962963 18.962963 0 0 1-11.377778 0L180.717037 446.008889zM946.251852 764.586667a18.962963 18.962963 0 0 1-18.962963-18.962963V420.598519a18.962963 18.962963 0 1 1 37.925926 0v325.025185a18.962963 18.962963 0 0 1-18.962963 18.962963z" fill="#075FA9" p-id="5082"></path><path d="M895.620741 258.275556a24.841481 24.651852 90 1 0 49.303703 0 24.841481 24.651852 90 1 0-49.303703 0Z" fill="#075FA9" p-id="5083"></path></svg>