<?xml version="1.0" standalone="no"?><!DOCTYPE svg PUBLIC "-//W3C//DTD SVG 1.1//EN" "http://www.w3.org/Graphics/SVG/1.1/DTD/svg11.dtd"><svg t="1613800347335" class="icon" viewBox="0 0 1024 1024" version="1.1" xmlns="http://www.w3.org/2000/svg" p-id="6620" xmlns:xlink="http://www.w3.org/1999/xlink" width="200" height="200"><defs><style type="text/css"></style></defs><path d="M773.46304 1005.44c-14.37184 0-30.57664-4.14208-45.61408-11.65824l-214.26688-107.14624-215.61344 106.99264c-13.67552 7.26528-29.30176 11.10016-45.22496 11.10016-20.92032 0-41.35424-6.69184-57.53856-18.82624-30.18752-22.64064-45.66016-61.83424-38.51776-97.54624l44.11904-228.7872L31.77472 502.01088c-26.00448-26.0096-36.31616-65.50528-26.27584-100.63872l0.3584-1.16224c12.27264-36.8128 42.77248-62.63808 79.72352-67.584l234.83904-42.7008 105.3952-214.08768c16.93696-33.88928 51.38432-55.68512 87.808-55.68512 37.99552 0 73.28768 22.58432 88.09984 56.27904l105.0624 213.4016 234.9056 41.0624c37.03296 5.19168 68.31616 32.55296 78.23872 68.37248 11.5712 35.6864 2.24256 74.31168-24.44288 100.99712l-0.59392 0.57856-168.53504 158.71488 42.56256 229.1712c6.86592 36.64896-7.69536 73.68192-38.03648 96.75264-15.72864 12.8768-36.10624 19.95776-57.4208 19.95776z m-259.78368-181.14048l239.13472 119.57248c7.01952 3.51232 15.12448 5.76512 20.65408 5.76512 8.55552 0 16.45568-2.65728 22.2464-7.4752l1.12128-0.896c13.60384-10.19904 20.1984-26.3936 17.22368-42.28608l-48.13312-259.15904 190.35648-179.26656c11.63776-11.83232 15.6416-28.81536 10.43968-44.42624l-0.49152-1.63328c-3.968-14.8992-17.04448-26.29632-32.53248-28.3648l-1.10592-0.17408-263.33696-46.03904-118.49216-240.7424c-5.75488-13.44512-21.376-23.19872-37.13024-23.19872-15.47776 0-30.32064 9.69216-37.82144 24.6784l-117.73952 239.1552-264.73472 48.09216c-16.09216 2.00704-28.5696 12.6976-34.33984 29.36832-4.10112 15.22176 0.76288 33.5616 11.93984 44.98432l190.51008 177.55648-50.00704 259.30752c-3.00544 15.03744 4.10112 32.29184 17.24416 42.14272 6.58944 4.95104 15.1296 7.65952 24.05888 7.65952 6.89152 0 13.53728-1.60256 19.21536-4.67456l0.82944-0.42496 240.89088-119.52128z" fill="#bfbfbf" p-id="6621"></path><path d="M773.20192 474.96704a11.9808 11.9808 0 0 1-2.21696-0.19968l-173.79328-30.38208-77.78304-157.99808a12.83584 12.83584 0 0 1 23.02976-11.34592l72.01792 146.29376 160.95232 28.13952a12.83072 12.83072 0 0 1 10.42432 14.85312 12.84096 12.84096 0 0 1-12.63104 10.63936z" fill="#bfbfbf" p-id="6622"></path></svg>