<?xml version="1.0" standalone="no"?><!DOCTYPE svg PUBLIC "-//W3C//DTD SVG 1.1//EN" "http://www.w3.org/Graphics/SVG/1.1/DTD/svg11.dtd"><svg t="1613800669569" class="icon" viewBox="0 0 1024 1024" version="1.1" xmlns="http://www.w3.org/2000/svg" p-id="9328" xmlns:xlink="http://www.w3.org/1999/xlink" width="200" height="200"><defs><style type="text/css"></style></defs><path d="M1024 768a256 256 0 1 0-256 256 256 256 0 0 0 256-256z m-256 192a192 192 0 1 1 192-192 192 192 0 0 1-192 192z" fill="#606266" p-id="9329"></path><path d="M448 960a64 64 0 0 0-64-64H225.92a4.48 4.48 0 0 1 0-3.84V133.76A5.76 5.76 0 0 1 229.76 128h564.48a5.76 5.76 0 0 1 5.76 5.76V320a64 64 0 0 0 128 0V133.76A134.4 134.4 0 0 0 794.24 0H229.76A134.4 134.4 0 0 0 96 133.76v757.76A134.4 134.4 0 0 0 229.76 1024h563.84H384a64 64 0 0 0 64-64z" fill="#606266" p-id="9330"></path><path d="M864 768H768v-96a32 32 0 0 0-64 0V832h160a32 32 0 0 0 0-64zM704 288a32 32 0 0 0-32-32h-320a32 32 0 0 0 0 64h320a32 32 0 0 0 32-32zM576 480a32 32 0 0 0-32-32h-192a32 32 0 0 0 0 64h192a32 32 0 0 0 32-32zM352 640a32 32 0 0 0 0 64h64a32 32 0 0 0 0-64z" fill="#606266" p-id="9331"></path></svg>