<?xml version="1.0" standalone="no"?><!DOCTYPE svg PUBLIC "-//W3C//DTD SVG 1.1//EN" "http://www.w3.org/Graphics/SVG/1.1/DTD/svg11.dtd"><svg t="1613800306283" class="icon" viewBox="0 0 1024 1024" version="1.1" xmlns="http://www.w3.org/2000/svg" p-id="4183" xmlns:xlink="http://www.w3.org/1999/xlink" width="200" height="200"><defs><style type="text/css"></style></defs><path d="M751.104 744.96l-216.064-108.032 65.536-95.232c3.072-4.608 4.608-9.728 4.608-15.36V374.784c0-98.816-79.36-176.128-180.224-176.128-101.376 0-180.224 77.312-180.224 176.128v151.552c0 5.632 1.536 11.264 5.12 15.872l67.072 94.72-225.792 108.032c-9.728 4.608-15.36 14.336-15.36 24.576v96.256c0 15.36 12.288 27.136 27.136 27.136h636.416c15.36 0 27.136-12.288 27.136-27.136v-96.256c-0.512-10.24-6.144-19.968-15.36-24.576z m-39.936 93.184H129.536v-51.712L368.64 671.744c7.168-3.584 12.8-10.24 14.848-17.92s0.512-15.872-4.096-22.528l-80.896-113.664V374.784c0-68.096 55.296-121.856 125.952-121.856s125.952 53.248 125.952 121.856v143.36l-78.336 114.176c-4.608 6.656-6.144 14.848-4.096 22.528 2.048 7.68 7.168 14.336 14.336 17.408l229.376 114.688-0.512 51.2z" fill="#8A898E" p-id="4184"></path><path d="M933.888 677.376l-216.064-108.032L783.36 474.112c3.072-4.608 4.608-9.728 4.608-15.36V307.2c0-98.816-79.36-176.128-180.224-176.128-19.456 0-38.912 3.072-57.344 8.704l16.896 52.224c12.8-4.096 26.624-6.144 40.448-6.144 70.656 0 125.952 53.248 125.952 121.856v143.36L655.36 565.248c-4.608 6.656-6.144 14.848-4.096 22.528 2.048 7.68 7.168 14.336 14.336 17.408l229.376 114.688v52.224h-68.096v54.784H921.6c15.36 0 27.136-12.288 27.136-27.136v-96.256c0-11.776-5.632-21.504-14.848-26.112z" fill="#8A898E" p-id="4185"></path></svg>