<?xml version="1.0" standalone="no"?><!DOCTYPE svg PUBLIC "-//W3C//DTD SVG 1.1//EN" "http://www.w3.org/Graphics/SVG/1.1/DTD/svg11.dtd"><svg t="1613800691312" class="icon" viewBox="0 0 1151 1024" version="1.1" xmlns="http://www.w3.org/2000/svg" p-id="10167" xmlns:xlink="http://www.w3.org/1999/xlink" width="224.8046875" height="200"><defs><style type="text/css"></style></defs><path d="M1097.942271 309.716794a407.776729 407.776729 0 0 0-142.534905-144.140904 23.040985 23.040985 0 0 0-31.613979 8.572994 22.504985 22.504985 0 0 0 8.036994 31.614979 355.263764 355.263764 0 0 1 173.612885 305.965797 351.512767 351.512767 0 0 1-48.760968 179.507881 357.406763 357.406763 0 0 1-126.994915 127.529915 23.040985 23.040985 0 0 0-23.040985 23.041985 23.576984 23.576984 0 0 0 23.039985 23.576984 43.939971 43.939971 0 0 0 23.041984-6.429995 404.025732 404.025732 0 0 0 145.213904-144.141905 397.059736 397.059736 0 0 0 53.583964-203.084865 404.561731 404.561731 0 0 0-53.583964-202.012866z" fill="#959595" p-id="10168"></path><path d="M955.407366 511.72966a238.985841 238.985841 0 0 0-116.812923-205.227864 23.576984 23.576984 0 1 0-24.112984 40.188974 194.510871 194.510871 0 0 1 94.307938 165.03989 191.831873 191.831873 0 0 1-94.843938 166.10989 23.576984 23.576984 0 0 0-23.041984 23.577984 23.040985 23.040985 0 0 0 23.041984 23.039985 43.939971 43.939971 0 0 0 23.040985-6.429996A237.378842 237.378842 0 0 0 955.407366 511.72966zM644.619572 1023.99532a190.759873 190.759873 0 0 1-99.129934-33.757978l-41.795972-29.47098-220.231854-167.719889a238.985841 238.985841 0 0 0-102.345932-30.541979c-75.01795 0-166.646889 0-179.506881-102.881932V365.444757c12.859991-103.417931 107.167929-102.881932 180.57888-103.417931a171.469886 171.469886 0 0 0 101.809932-30.00698L543.879639 37.509975a197.725869 197.725869 0 0 1 38.579974-23.576984 116.277923 116.277923 0 0 1 97.523935-5.358997 90.02194 90.02194 0 0 1 41.795973 34.829977 144.141904 144.141904 0 0 1 18.753987 72.339952v791.974474a107.168929 107.168929 0 0 1-63.229958 111.455926 107.168929 107.168929 0 0 1-32.685978 4.821997zM183.259878 708.919529a264.706824 264.706824 0 0 1 130.744913 40.188974L576.030617 944.689373a117.884922 117.884922 0 0 0 84.127945 23.577984c19.289987-6.965995 26.255983-21.433986 26.791982-61.086959V117.349922a88.949941 88.949941 0 0 0-10.716993-45.01097 35.900976 35.900976 0 0 0-18.218988-15.00399 64.836957 64.836957 0 0 0-53.583964 5.358996 152.179899 152.179899 0 0 0-28.399982 17.146989L316.68279 274.349818a214.336858 214.336858 0 0 1-135.56791 41.259972c-90.55794 0-120.02892 8.037995-125.922917 53.584965v285.067811c5.893996 47.689968 34.829977 53.584964 125.922917 53.584964z" fill="#959595" p-id="10169"></path></svg>