<?xml version="1.0" standalone="no"?><!DOCTYPE svg PUBLIC "-//W3C//DTD SVG 1.1//EN" "http://www.w3.org/Graphics/SVG/1.1/DTD/svg11.dtd"><svg t="1622184784939" class="icon" viewBox="0 0 1024 1024" version="1.1" xmlns="http://www.w3.org/2000/svg" p-id="11587" xmlns:xlink="http://www.w3.org/1999/xlink" width="200" height="200"><defs><style type="text/css"></style></defs><path d="M87.4 921.5V337.2c0-41.3 33.6-74.9 74.9-74.9h268.1v50H162.3c-13.8 0-25 11.2-25 25v489.6l85.9-58.8H668c13.8 0 25-11.2 25-25V574.4h50V743c0 41.3-33.6 74.9-74.9 74.9H238.8L87.4 921.5z" fill="#2020E5" p-id="11588"></path><path d="M243.5 586.9h318.4v50H243.5zM243.5 449.6h187.3v50H243.5z" fill="#D2DEFF" p-id="11589"></path><path d="M718 293.5m-224.8 0a224.8 224.8 0 1 0 449.6 0 224.8 224.8 0 1 0-449.6 0Z" fill="#72F275" p-id="11590"></path><path d="M802.3 234.1c-20.7-20.7-54.3-20.7-75.1 0l-11.7 11.7-11.7-11.7c-20.7-20.7-54.3-20.7-75.1 0s-20.7 54.3 0 75.1l86 86 0.7-0.7 0.7 0.7 86-86c21-20.7 21-54.3 0.2-75.1z" fill="#1E9E25" p-id="11591"></path></svg>