<?xml version="1.0" standalone="no"?><!DOCTYPE svg PUBLIC "-//W3C//DTD SVG 1.1//EN" "http://www.w3.org/Graphics/SVG/1.1/DTD/svg11.dtd"><svg t="1613800618969" class="icon" viewBox="0 0 1024 1024" version="1.1" xmlns="http://www.w3.org/2000/svg" p-id="7486" xmlns:xlink="http://www.w3.org/1999/xlink" width="200" height="200"><defs><style type="text/css"></style></defs><path d="M820.736 679.424V393.216c0-170.496-138.24-309.248-309.248-309.248-170.496 0-309.248 138.24-309.248 309.248v285.696l-150.016 148.48v56.32h918.016v-56.32l-149.504-147.968zM241.664 395.776c0-148.992 120.832-269.824 269.824-269.824s269.824 120.832 269.824 269.824v298.496l150.016 149.504h-834.56l144.896-149.504V395.776z" fill="#5D5D5D" p-id="7487"></path><path d="M510.976 988.16c-65.024 0-117.76-52.736-117.76-117.76h-30.72c0 81.92 66.56 148.48 148.48 148.48s148.48-66.56 148.48-148.48h-30.72c0 65.024-52.736 117.76-117.76 117.76z" fill="#5D5D5D" p-id="7488"></path><path d="M540.672 91.648c0 16.384-13.312 29.184-29.184 29.184-16.384 0-29.184-13.312-29.184-29.184V41.984c0-16.384 13.312-29.184 29.184-29.184 16.384 0 29.184 13.312 29.184 29.184v49.664z" fill="#5D5D5D" p-id="7489"></path></svg>