<?xml version="1.0" standalone="no"?><!DOCTYPE svg PUBLIC "-//W3C//DTD SVG 1.1//EN" "http://www.w3.org/Graphics/SVG/1.1/DTD/svg11.dtd"><svg t="1613800337930" class="icon" viewBox="0 0 1024 1024" version="1.1" xmlns="http://www.w3.org/2000/svg" p-id="5838" xmlns:xlink="http://www.w3.org/1999/xlink" width="200" height="200"><defs><style type="text/css"></style></defs><path d="M512 1024C229.701818 1024 0 794.298182 0 512S229.701818 0 512 0s512 229.701818 512 512-229.701818 512-512 512z m0-989.556364C248.785455 34.443636 34.443636 248.785455 34.443636 512S248.785455 989.556364 512 989.556364 989.556364 775.214545 989.556364 512 775.214545 34.443636 512 34.443636z" fill="#BEC7D3" p-id="5839"></path><path d="M373.992727 667.229091c-4.421818 0-8.843636-1.629091-12.101818-5.12a17.268364 17.268364 0 0 1 0-24.436364l276.247273-276.247272a17.268364 17.268364 0 1 1 24.436363 24.436363L386.094545 662.341818c-3.258182 3.258182-7.68 4.887273-12.101818 4.887273z" fill="#BEC7D3" p-id="5840"></path><path d="M650.007273 667.229091c-4.421818 0-8.843636-1.629091-12.101818-5.12L361.658182 386.094545a17.268364 17.268364 0 1 1 24.436363-24.436363l276.247273 276.247273c6.749091 6.749091 6.749091 17.687273 0 24.436363-3.490909 3.258182-7.912727 4.887273-12.334545 4.887273z" fill="#BEC7D3" p-id="5841"></path></svg>