<?xml version="1.0" standalone="no"?><!DOCTYPE svg PUBLIC "-//W3C//DTD SVG 1.1//EN" "http://www.w3.org/Graphics/SVG/1.1/DTD/svg11.dtd"><svg t="1622184765595" class="icon" viewBox="0 0 1024 1024" version="1.1" xmlns="http://www.w3.org/2000/svg" p-id="9468" xmlns:xlink="http://www.w3.org/1999/xlink" width="200" height="200"><defs><style type="text/css"></style></defs><path d="M265.359337 424.61755l440.896933-254.542634 33.454175 57.948449-440.896933 254.542634zM262.944818 600.295604l33.454175-57.948449 440.867842 254.542634-33.454174 57.948449z" fill="#333333" p-id="9469"></path><path d="M200.720053 366.552739a139.634817 139.634817 0 1 0 139.634816 139.634816 139.634817 139.634817 0 0 0-139.634816-139.634816z m0 218.179401A81.453643 81.453643 0 0 1 119.26641 503.278497a81.453643 81.453643 0 0 1 162.907286 0 81.453643 81.453643 0 0 1-81.453643 81.453643zM823.25861 744.730367a139.634817 139.634817 0 1 0 139.634817 139.634816 139.634817 139.634817 0 0 0-139.634817-139.634816z m0 221.088459a81.453643 81.453643 0 0 1-81.453643-81.453643 81.453643 81.453643 0 1 1 81.453643 81.453643zM823.25861 0.011345A139.634817 139.634817 0 1 0 962.893427 139.646162 137.889381 137.889381 0 0 0 823.25861 0.011345z m0 218.179401a81.453643 81.453643 0 0 1-81.453643-81.453643A78.83549 78.83549 0 0 1 823.25861 58.192519 81.453643 81.453643 0 0 1 904.712253 139.646162a77.090055 77.090055 0 0 1-81.453643 78.544584z" fill="#333333" p-id="9470"></path></svg>