<?xml version="1.0" standalone="no"?><!DOCTYPE svg PUBLIC "-//W3C//DTD SVG 1.1//EN" "http://www.w3.org/Graphics/SVG/1.1/DTD/svg11.dtd"><svg t="1622184734963" class="icon" viewBox="0 0 1024 1024" version="1.1" xmlns="http://www.w3.org/2000/svg" p-id="7338" xmlns:xlink="http://www.w3.org/1999/xlink" width="200" height="200"><defs><style type="text/css"></style></defs><path d="M657.432 344.178l-76.8-8.275-2.069-2.069-33.228-70.594c-6.206-12.412-18.748-20.816-31.16-20.816-12.412 0-24.953 8.275-31.16 20.816l-33.228 68.526-2.068 2.068-76.8 10.344c-14.481 2.068-24.954 10.343-29.091 22.885-4.138 12.412 0 27.022 10.343 35.297l56.113 51.975s0 2.069 2.069 2.069l-16.55 78.869c-2.068 10.343 0 22.885 6.207 29.09 10.343 12.413 27.022 14.481 43.571 6.207l66.457-37.366h2.069l68.525 37.366c6.206 4.137 12.412 4.137 18.747 4.137 10.344 0 18.748-4.137 24.954-12.412 6.206-8.275 8.275-18.748 6.206-29.091l-10.344-72.663v-2.068l56.114-54.045c10.343-10.343 14.48-22.885 10.343-35.297-4.267-12.412-14.74-22.885-29.22-24.953z m-74.732 74.86c-12.412 12.413-18.747 33.229-16.549 49.907l6.206 35.297-33.228-16.678c-10.344-6.206-20.816-6.206-27.022-6.206-6.207 0-16.55 2.068-27.023 6.206l-29.09 18.747 6.205-35.297c4.138-16.55-4.137-37.366-16.549-49.907l-27.022-24.953 37.365-4.138c16.55-2.069 35.297-14.48 43.572-31.16l16.679-33.228 16.55 33.229c8.274 16.678 24.953 29.09 43.571 31.16l37.366 4.137-31.03 22.884z m0 0" fill="#515151" p-id="7339"></path><path d="M979.371 869.624L873.481 570.57c22.884-51.976 35.296-105.891 35.296-162.004 0-218.118-176.485-394.602-394.602-394.602S119.573 190.578 119.573 408.566c0 58.181 12.412 114.165 37.366 168.21L44.842 861.349c-4.137 10.344-2.069 20.817 4.137 29.091 6.206 6.206 16.68 10.344 27.023 6.206l162.004-37.365 91.41 139.119c4.137 8.275 14.48 12.412 22.884 12.412h2.07c10.343-2.069 18.747-8.275 22.884-16.679l76.67-195.103c18.748 2.069 37.366 4.138 58.183 4.138 18.747 0 39.434-2.069 58.181-4.138l66.457 191.095c4.137 10.344 12.412 16.679 22.885 18.748h4.137c8.275 0 16.679-4.138 22.885-10.344l97.616-134.982 159.936 45.64c10.343 2.07 20.816 0 27.022-8.274 8.145-10.473 10.214-20.945 8.145-31.289zM348.034 923.67L273.303 813.64c-4.138-8.274-14.481-12.412-22.885-12.412h-6.206l-130.845 31.03 76.8-195.232c2.069 2.069 4.138 4.138 4.138 6.206 0 2.069 2.068 2.069 2.068 4.138 2.069 2.068 2.069 4.137 4.138 4.137 0 2.069 2.068 2.069 2.068 4.137 2.069 2.07 2.069 4.138 4.138 4.138l10.343 10.343c2.069 2.069 2.069 4.138 4.137 4.138l2.07 2.068 14.48 14.481c2.069 2.069 4.137 4.137 6.206 4.137l10.343 10.344c2.07 2.069 4.138 4.137 8.275 6.206l2.069 2.069c2.069 2.068 4.137 4.137 6.206 4.137 0 0 2.069 0 2.069 2.069 2.068 2.068 4.137 4.137 8.274 6.206 2.07 2.068 6.206 4.137 8.275 6.206 2.069 2.069 4.138 4.137 8.275 4.137h2.069c6.206 4.138 12.412 8.275 18.747 10.344 2.069 2.068 6.206 4.137 8.275 4.137 10.343 4.137 18.747 10.343 29.09 14.48l31.16 12.413c4.138 2.069 8.275 2.069 10.344 4.137l-49.39 141.835z m236.735-182.82c-45.64 10.343-93.479 10.343-139.119 0-101.754-20.687-186.958-85.075-232.598-178.554-24.954-47.838-37.495-99.685-37.495-153.73 0-186.828 151.66-340.557 340.687-340.557 186.958 0 340.558 151.66 340.558 340.558 0 51.975-12.413 101.753-35.297 147.394-2.07 2.068-2.07 6.206-4.138 8.274-49.907 91.54-134.982 155.928-232.598 176.614z m195.233 62.319c-10.344-2.069-22.885 2.068-29.091 10.343l-78.87 107.96-47.708-134.982h4.137c2.069 0 6.206-2.069 8.275-2.069h2.069l18.747-6.206h2.069c2.068 0 4.137-2.069 8.275-4.137h2.068c4.138-2.069 6.206-2.069 10.344-4.138 2.068-2.068 6.206-2.068 8.274-4.137 0 0 2.07 0 2.07-2.069 2.068-2.068 4.136-2.068 6.205-4.137 0 0 2.069 0 2.069-2.069 2.069-2.068 6.206-4.137 8.275-4.137 2.068-2.069 6.206-4.137 8.274-4.137 0 0 2.069 0 2.069-2.07 2.069-2.068 4.137-2.068 6.206-4.137 0 0 2.069 0 2.069-2.068 2.068-2.069 6.206-4.138 8.275-6.206 2.068-2.069 4.137-4.138 8.274-6.206l2.069-2.069c2.069-2.069 4.137-4.137 6.206-4.137 0 0 2.069 0 2.069-2.07 2.068-2.068 6.206-4.136 8.274-6.205h2.07l16.678-16.679c2.069-2.069 4.137-4.137 8.275-6.206l16.55-16.55c2.068-2.068 4.137-6.206 6.205-8.274l6.206-6.206s0-2.069 2.069-2.069c2.069-2.069 4.137-6.206 6.206-8.275 2.069-2.068 4.137-6.206 6.206-8.274 2.069-2.07 2.069-4.138 4.137-4.138L908.26 842.99l-128.258-39.822z m0 0" fill="#515151" p-id="7340"></path></svg>