<?xml version="1.0" standalone="no"?><!DOCTYPE svg PUBLIC "-//W3C//DTD SVG 1.1//EN" "http://www.w3.org/Graphics/SVG/1.1/DTD/svg11.dtd"><svg t="1613800296765" class="icon" viewBox="0 0 1024 1024" version="1.1" xmlns="http://www.w3.org/2000/svg" p-id="3319" xmlns:xlink="http://www.w3.org/1999/xlink" width="200" height="200"><defs><style type="text/css"></style></defs><path d="M701 848h-44V568.6c0-16.1-13.1-29.2-29.2-29.2s-29.2 13.1-29.2 29.2V848H282.4c-48.6 0-88.2-39.5-88.2-88.2V643.4c0-8.8 7.2-16 16-16s16 7.2 16 16v116.5c0 31 25.2 56.2 56.2 56.2h284.2V568.6c0-33.8 27.4-61.2 61.2-61.2 33.8 0 61.2 27.4 61.2 61.2V816h12.1c31 0 56.2-25.2 56.2-56.2V504.4h16c16 0 22-12.3 23.4-16.1 1.4-3.8 5.3-17-6.6-27.7L526.5 221.9c-19.7-17.9-49.9-17.9-69.6 0L193.4 460.6c-11.8 10.7-8.1 23.9-6.6 27.7 1.4 3.8 7.4 16.1 23.4 16.1h16V567c0 8.8-7.2 16-16 16s-16-7.2-16-16v-32.8c-16.9-4.8-30.7-17.3-37.4-34.3-8.6-22.2-2.7-47 15-63l263.6-238.6c15.4-14 35.4-21.7 56.2-21.7 20.8 0 40.8 7.7 56.2 21.7l263.6 238.6c17.7 16 23.5 40.7 15 63-6.6 17-20.5 29.5-37.4 34.3V760c0.2 48.5-39.3 88-88 88z m0 0" fill="#707070" p-id="3320"></path><path d="M327.5 645.2c-8.8 0-16-7.2-16-16v-91.4c0-8.8 7.2-16 16-16s16 7.2 16 16v91.4c0 8.8-7.1 16-16 16z m0 0M309.3 667.5c0 9.3 8.2 16.9 18.2 16.9 10.1 0 18.2-7.6 18.2-16.9 0-9.3-8.2-16.9-18.2-16.9s-18.2 7.6-18.2 16.9z m0 0" fill="#59e27f" p-id="3321"></path></svg>